<svg width="16" height="16" viewBox="0 0 16 16" fill="none" xmlns="http://www.w3.org/2000/svg">
<circle cx="8" cy="8" r="8" fill="#D17D8C"/>
<path d="M2.35217 8.09555L2.31121 8.07586C2.221 8.02476 2.15072 7.94981 2.10186 7.8529C2.0312 7.72269 2 7.60042 2 7.47437L2.00977 7.40926C2.00977 7.30857 2.03533 7.21809 2.08043 7.13141L2.1214 7.05646C2.14094 7.0152 2.17026 6.97961 2.19582 6.94592C2.22702 6.91034 2.23115 6.86492 2.22138 6.82366L2.19582 6.74265C2.1665 6.64196 2.14696 6.54165 2.14696 6.44095L2.13117 6.38001C2.13117 6.26758 2.16049 6.15705 2.23115 6.07642L2.28189 6.01131C2.31722 5.96021 2.37209 5.9303 2.43261 5.91062C2.48147 5.89472 2.5168 5.84362 2.52281 5.78457L2.53258 5.61309C2.53258 5.47719 2.59723 5.35076 2.69721 5.25802L2.81861 5.16717C2.84229 5.14332 2.86747 5.11796 2.88701 5.07632C2.91257 5.04679 2.91821 5.00516 2.91257 4.97563C2.9028 4.92642 2.91257 4.91052 2.93813 4.90446C3.01856 4.93588 3.0693 4.92604 3.10463 4.88478L3.16928 4.79999L3.34931 4.59709C3.40005 4.54788 3.41997 4.45514 3.3884 4.38624L3.32977 4.25413C3.32 4.22461 3.32977 4.18903 3.35533 4.17918C3.41997 4.17918 3.46507 4.20303 3.48462 4.24429L3.50416 4.27987C3.53536 4.34082 3.60602 4.37072 3.65488 4.34498C3.76463 4.30561 3.85634 4.29577 3.94053 4.29577H4.10102C4.21077 4.29577 4.3006 4.21893 4.3224 4.10272C4.34194 3.96266 4.3908 3.85023 4.46146 3.77528C4.53776 3.6886 4.62195 3.62349 4.72193 3.57238C4.8531 3.50349 4.93353 3.40091 4.95871 3.27069C4.99404 3.10905 5.07824 2.99284 5.19362 2.91789L5.57549 2.70099L5.68524 2.63399C5.74988 2.59462 5.8104 2.54314 5.86151 2.48219L5.96149 2.36182C6.01035 2.31071 6.06147 2.27702 6.12198 2.26113C6.17084 2.24523 6.2415 2.23538 6.30201 2.24144L6.50159 2.25507C6.60157 2.25507 6.68162 2.28081 6.76206 2.31601L6.8128 2.34175C6.86354 2.36144 6.91277 2.3516 6.93796 2.31601L6.98306 2.29027L7.19842 2.06353C7.24916 2.01243 7.30817 1.99236 7.3747 2.00258C7.43934 2.01243 7.50399 2.03817 7.5645 2.06958C7.65471 2.11879 7.72913 2.13848 7.8152 2.13848H7.86594C7.97569 2.13848 8.08506 2.15438 8.19669 2.17974L8.27111 2.19942C8.34552 2.21911 8.42182 2.18958 8.47068 2.12826C8.48647 2.10252 8.52142 2.09873 8.54134 2.11842C8.55713 2.12826 8.56089 2.1381 8.5669 2.154C8.57667 2.25469 8.63756 2.33153 8.71762 2.355L8.79805 2.38074C8.88224 2.40648 8.95854 2.46175 9.0074 2.53254C9.05814 2.60749 9.11903 2.68433 9.18744 2.73354L9.23818 2.78465C9.28892 2.83575 9.3577 2.85581 9.42798 2.84975H9.7234C9.8448 2.84975 9.96019 2.87133 10.076 2.92092C10.1857 2.97202 10.3011 2.98186 10.4048 2.9406C10.5165 2.90691 10.6318 2.89139 10.7472 2.90691L10.9626 2.9406C11.0626 2.95234 11.1622 3.00155 11.2231 3.07877L11.2486 3.10262C11.2975 3.15372 11.3486 3.21883 11.3975 3.28999C11.4286 3.3551 11.4993 3.39069 11.5677 3.39069H11.8789C11.9552 3.39069 12.0296 3.40658 12.0905 3.44179C12.1552 3.491 12.21 3.54248 12.2608 3.59358L12.3096 3.65869C12.3702 3.72986 12.3998 3.82449 12.3957 3.9267C12.3957 4.0077 12.4562 4.0766 12.5348 4.0766L12.6366 4.08833C12.7073 4.08833 12.7659 4.13754 12.8013 4.20265L12.852 4.30524L12.9813 4.59709C13.0027 4.64819 13.0069 4.69778 13.0027 4.73904C13.0027 4.78825 13.0162 4.82989 13.0516 4.84958L13.1023 4.88516C13.167 4.93626 13.2023 5.01121 13.1925 5.09828L13.1572 5.33486L13.1474 5.43555C13.1376 5.48666 13.161 5.55177 13.2079 5.58735C13.2824 5.63656 13.3177 5.70356 13.3214 5.77851V5.8792C13.3214 5.9303 13.3117 5.99163 13.2726 6.031C13.2414 6.07226 13.2218 6.12185 13.2218 6.18279L13.2376 6.299C13.2376 6.38001 13.2865 6.4508 13.3376 6.50001C13.4083 6.55111 13.4474 6.63212 13.459 6.71312C13.4785 6.83918 13.4827 6.93987 13.4827 7.04056V7.15677C13.4827 7.19803 13.4827 7.23778 13.4985 7.27715C13.5082 7.31273 13.5338 7.34831 13.5631 7.36989L13.6631 7.44484C13.7649 7.50995 13.8352 7.59663 13.8747 7.71284C13.9254 7.82338 13.9393 7.93959 13.9393 8.0558V8.09517C13.9393 8.18602 13.9296 8.28255 13.9003 8.36734C13.8747 8.46008 13.8807 8.54487 13.9138 8.61982C13.9548 8.69099 13.9803 8.77162 13.9901 8.8583C14.0096 8.959 13.9999 9.05931 13.9645 9.14032L13.9548 9.1759C13.9292 9.23684 13.8901 9.29211 13.8394 9.33753C13.7886 9.38864 13.7394 9.41854 13.7101 9.45375C13.6789 9.48327 13.6593 9.53475 13.6747 9.5798L13.6883 9.65096C13.7138 9.75166 13.7138 9.85197 13.6883 9.94282V9.98408C13.6687 10.059 13.6394 10.1241 13.6078 10.1851C13.5725 10.2502 13.5237 10.3013 13.459 10.3369L13.3827 10.3861C13.3474 10.4077 13.3222 10.4531 13.3222 10.4985C13.3222 10.5477 13.3026 10.5992 13.2733 10.6287L13.197 10.7313C13.1482 10.7964 13.0835 10.8517 13.0129 10.8812C12.9422 10.9323 12.8817 10.9838 12.8366 11.033C12.7859 11.094 12.7464 11.1651 12.7268 11.2359C12.7073 11.3268 12.6366 11.376 12.5603 11.376H12.2901C12.2194 11.376 12.1552 11.4271 12.1255 11.4884C12.0901 11.5671 12.0548 11.6243 12.0101 11.6739C11.9594 11.725 11.9297 11.7863 11.9082 11.8552C11.8985 11.9161 11.8496 11.9578 11.7985 11.9362C11.7338 11.9067 11.6692 11.9362 11.638 11.9873C11.5794 12.088 11.5185 12.1648 11.4538 12.23L11.4185 12.2595C11.352 12.3106 11.2678 12.3503 11.1915 12.3503C11.1013 12.3503 11.0566 12.3916 11.0426 12.451C11.0269 12.5021 11.0171 12.5672 11.0114 12.6244C11.0017 12.6834 10.9821 12.7387 10.9626 12.7902L10.937 12.8197C10.8863 12.8966 10.8468 12.9715 10.7961 13.0366L10.7765 13.068C10.7119 13.1528 10.6258 13.2198 10.5258 13.2437C10.4044 13.2849 10.3007 13.2948 10.1951 13.2948H10.1244C10.0756 13.2948 10.0245 13.3243 9.98951 13.3758L9.96019 13.4269L9.92899 13.4859L9.86435 13.5984C9.81361 13.6892 9.73919 13.7483 9.63921 13.7797C9.53923 13.8054 9.42385 13.8153 9.31823 13.8092L9.2378 13.7994C9.16714 13.7994 9.10287 13.7797 9.03822 13.7483C8.98748 13.7286 8.91682 13.7483 8.8875 13.7994C8.83676 13.8705 8.77588 13.9099 8.71123 13.9315L8.56051 13.9807C8.46054 14.0064 8.35116 14.0064 8.24517 13.9807L8.16474 13.955C8.11588 13.955 8.06476 13.9311 8.02379 13.9057C7.97493 13.88 7.92382 13.8702 7.87496 13.8743L7.80843 13.8861C7.70845 13.8959 7.61863 13.8861 7.52842 13.8603L7.39349 13.8289C7.33298 13.8092 7.2781 13.7698 7.24277 13.7127C7.21721 13.6635 7.16234 13.6218 7.09205 13.612H6.93157C6.83159 13.5984 6.74176 13.5628 6.68087 13.4859L6.48129 13.2948L6.41063 13.2338L6.30088 13.1528L6.23624 13.1036C6.15994 13.0525 6.06974 13.0128 5.97389 13.0029L5.67434 12.9518C5.64314 12.9518 5.6236 12.942 5.59391 12.9359L5.47852 12.9102C5.42778 12.9003 5.37854 12.861 5.34359 12.8095C5.31427 12.7603 5.25752 12.7383 5.20866 12.7603C5.10868 12.7997 5.02862 12.8095 4.94819 12.8254H4.87753C4.74636 12.8352 4.62684 12.8156 4.50544 12.7603C4.38591 12.7092 4.30586 12.6342 4.23144 12.5373C4.17093 12.4506 4.08072 12.3855 3.96909 12.3658L3.83003 12.3363C3.73005 12.3147 3.62857 12.2754 3.53837 12.2141C3.43839 12.1429 3.38765 12.0782 3.34856 11.9972C3.30947 11.9222 3.28391 11.8355 3.2779 11.7447V11.7053C3.26813 11.6027 3.19747 11.5122 3.1035 11.4884C2.98812 11.4528 2.90205 11.4017 2.82763 11.3366C2.75697 11.2696 2.716 11.175 2.716 11.0743L2.72765 10.8513C2.72765 10.7646 2.70209 10.6897 2.64158 10.6344C2.58107 10.5735 2.5416 10.4985 2.5416 10.4175L2.52582 10.2362C2.51605 10.1041 2.49049 9.97386 2.46117 9.84175C2.43185 9.72554 2.47696 9.60895 2.57092 9.55406L2.60625 9.52832C2.65699 9.49274 2.67691 9.42763 2.64722 9.36668L2.60625 9.31747C2.55739 9.26637 2.50627 9.23079 2.45553 9.21678C2.41645 9.20505 2.40667 9.16568 2.40667 9.13994L2.45553 9.07899C2.48673 9.04341 2.48109 8.98814 2.45553 8.95862C2.41645 8.91736 2.3969 8.86777 2.39089 8.81666L2.38111 8.46387C2.38111 8.3927 2.39089 8.32191 2.41043 8.25302C2.43185 8.19208 2.41043 8.12091 2.3518 8.09138L2.35217 8.09555ZM7.31268 7.42894C7.34801 7.39336 7.342 7.32825 7.31268 7.30289C7.26194 7.26352 7.22661 7.21809 7.19729 7.16699L7.14655 7.08598C7.1131 7.02088 7.06838 6.96561 7.01726 6.91451L7.00749 6.90466C6.95675 6.8653 6.92142 6.81381 6.8921 6.75287C6.86654 6.70366 6.86654 6.65218 6.8921 6.60108L6.92142 6.55187C6.95261 6.50076 6.97216 6.4296 6.97216 6.37055V6.34897C6.97216 6.29976 6.95261 6.24828 6.92142 6.19907C6.90187 6.15781 6.88233 6.10822 6.87256 6.05712V6.02759C6.85677 5.96664 6.87256 5.90154 6.91165 5.85005C6.95261 5.78495 6.98231 5.724 6.99772 5.64905V5.63732C7.01726 5.58811 7.00749 5.523 6.97629 5.47152C6.94698 5.42041 6.9372 5.37082 6.95675 5.30988L6.99208 5.20919C7.02139 5.11834 7.06838 5.03771 7.12701 4.96654L7.19767 4.89159L7.24841 4.83065L7.27773 4.80112C7.30704 4.7697 7.31306 4.72012 7.2875 4.67885C7.26194 4.62775 7.24841 4.57816 7.25818 4.52706L7.26795 4.4559C7.28374 4.3552 7.31869 4.25489 7.38334 4.17388L7.40289 4.1542C7.4773 4.05351 7.57315 3.98651 7.6829 3.9513L7.82008 3.90209C7.87872 3.88241 7.92006 3.81541 7.92006 3.7503C7.92006 3.66929 7.94562 3.5985 7.99034 3.5334L8.01402 3.50765C8.06476 3.42286 8.12565 3.33618 8.16474 3.24533L8.20007 3.18022C8.20984 3.16432 8.21586 3.14464 8.21586 3.12912C8.21586 3.04432 8.16511 2.96748 8.08468 2.96332L7.86556 2.94742C7.7404 2.93757 7.61487 2.94742 7.49347 2.94742L7.06875 2.99852C7.00223 2.99852 6.95337 3.04773 6.94735 3.1189C6.94735 3.19006 6.89661 3.25101 6.8376 3.27069L6.65757 3.3199L6.60683 3.3358L6.45611 3.3869C6.34636 3.42248 6.25653 3.50311 6.20542 3.61365L6.16633 3.67875C6.11559 3.79118 6.0314 3.88165 5.92541 3.94676C5.82543 4.01187 5.77469 4.11824 5.76492 4.23861V4.28972C5.75515 4.39041 5.72395 4.49072 5.66494 4.56189L5.63938 4.60315C5.59842 4.65236 5.58864 4.71936 5.61383 4.77463C5.63938 4.83368 5.65479 4.90068 5.64916 4.96579V5.23379C5.64916 5.30496 5.59842 5.36401 5.54918 5.38369C5.47852 5.40943 5.43379 5.4647 5.41425 5.53549L5.38869 5.63618C5.36915 5.73876 5.40448 5.83908 5.48867 5.9004C5.5691 5.95945 5.61984 6.0503 5.63938 6.16273V6.25358C5.65517 6.35427 5.71004 6.45458 5.79987 6.50606C5.89008 6.56701 5.96036 6.65786 5.99945 6.75855L6.02501 6.83956C6.06598 6.95009 6.15618 7.0152 6.25616 7.02504H6.28547C6.37568 7.02504 6.45574 7.07614 6.50685 7.15715C6.55571 7.23816 6.63615 7.29305 6.72597 7.30894L6.86692 7.34831C6.95299 7.37405 7.03342 7.41948 7.09807 7.48421L7.10784 7.49594C7.15858 7.53531 7.23901 7.52963 7.28412 7.47437L7.31945 7.435L7.31268 7.42894ZM7.88398 6.96561C7.93284 6.99513 7.98395 6.97924 8.0035 6.93419L8.01928 6.91034C8.05461 6.83918 8.09972 6.76839 8.14858 6.70745L8.25043 6.55565C8.26396 6.55565 8.26998 6.54581 8.27411 6.53597L8.39551 6.37433C8.44625 6.32512 8.50526 6.28954 8.57555 6.28954C8.64019 6.28954 8.69695 6.25396 8.72626 6.18885C8.74581 6.11768 8.77512 6.05068 8.83601 5.99579L8.86157 5.96627C8.91231 5.91516 8.96155 5.88942 9.01229 5.86557C9.07693 5.85573 9.13745 5.844 9.19834 5.844H9.34717C9.40769 5.844 9.4588 5.82015 9.48812 5.76905C9.51743 5.71794 9.56254 5.68425 9.61328 5.65851L9.66402 5.63694C9.74445 5.60325 9.83428 5.57788 9.92448 5.56804L10.0245 5.5582C10.085 5.5582 10.1496 5.5582 10.2105 5.59189C10.2594 5.62747 10.3259 5.62331 10.3751 5.58205L10.4105 5.56236C10.4849 5.51126 10.5709 5.47152 10.6612 5.46167H10.6709C10.7709 5.44199 10.8607 5.44199 10.9626 5.44577H11.0114C11.1114 5.46167 11.1975 5.49688 11.2621 5.57183L11.2779 5.59151C11.3287 5.64261 11.4072 5.68425 11.4775 5.68425H11.5636C11.5891 5.68425 11.6124 5.67252 11.6282 5.64867C11.644 5.63277 11.6692 5.61725 11.6929 5.61725H11.7436C11.8143 5.61725 11.8785 5.63694 11.9432 5.65851L12.0293 5.6941C12.1097 5.71794 12.1939 5.74331 12.28 5.75315H12.3405C12.3796 5.75315 12.4051 5.7293 12.4051 5.6941C12.4051 5.64299 12.3953 5.59151 12.3698 5.55214L12.3345 5.47114C12.2954 5.40603 12.2638 5.33524 12.2345 5.27013L12.2247 5.24439C12.1991 5.19329 12.1991 5.1437 12.2247 5.0926V5.06686C12.2345 5.02749 12.2149 4.98206 12.174 4.96617H12.1349C12.0544 4.94043 11.9842 4.895 11.9334 4.83027L11.8846 4.77917C11.8338 4.72996 11.8041 4.65311 11.7827 4.57816C11.759 4.51305 11.7045 4.46195 11.6339 4.46195H11.4223C11.3478 4.45211 11.2813 4.41085 11.2362 4.35142L11.2167 4.32568C11.1813 4.27457 11.152 4.21514 11.1325 4.1542C11.1069 4.1031 11.052 4.07319 11.0013 4.08909L10.9408 4.10877C10.8408 4.14436 10.7412 4.15798 10.6412 4.14814L10.5608 4.1383C10.4747 4.1383 10.3943 4.10272 10.3297 4.05351L10.2789 4.01793C10.2398 3.98651 10.2007 3.96682 10.1538 3.94676C10.1049 3.92708 10.0635 3.93692 10.0342 3.9725L10.0087 4.00203C9.95981 4.05313 9.88915 4.09288 9.81887 4.10272L9.54863 4.11862C9.49789 4.11862 9.44865 4.14436 9.4137 4.17956C9.37273 4.21514 9.32763 4.23861 9.27651 4.24846H9.26674C9.21788 4.24846 9.16676 4.28404 9.1179 4.31962V4.32946C9.06716 4.38057 9.00252 4.40631 8.93599 4.40631L8.91645 4.41615C8.85593 4.41615 8.79692 4.41615 8.73641 4.43205H8.6759C8.59171 4.44567 8.52518 4.51684 8.50564 4.60769L8.48609 4.7239C8.47031 4.80491 8.43535 4.87569 8.38612 4.9408C8.33538 5.00175 8.27449 5.04149 8.20007 5.04149H8.11588C8.06514 5.05323 8.01402 5.1085 8.02379 5.16755C8.03545 5.25423 8.02379 5.32918 8.01026 5.40603L7.99072 5.49082C7.9693 5.56766 7.92006 5.62672 7.85353 5.65246L7.82422 5.66836H7.81444C7.78513 5.68804 7.7637 5.73346 7.78889 5.76905C7.82008 5.82015 7.82985 5.86974 7.82422 5.92084L7.80843 6.08248C7.80843 6.14153 7.78475 6.19869 7.75957 6.24828C7.72837 6.29938 7.72837 6.34897 7.7498 6.40007L7.79866 6.51061C7.82422 6.56171 7.82985 6.61319 7.81444 6.67224C7.79866 6.72334 7.78889 6.77293 7.7949 6.82404C7.7949 6.87514 7.82422 6.92473 7.86556 6.9463L7.88398 6.96561ZM11.8425 10.6151C11.8932 10.6643 11.9676 10.684 12.0285 10.6446L12.1285 10.5795C12.1792 10.5439 12.2187 10.4928 12.2382 10.4277V10.4179L12.289 10.2661L12.3183 10.215L12.3397 10.1658L12.3593 10.1302C12.3788 10.0889 12.4081 10.059 12.4592 10.0435L12.4788 10.0337C12.5197 10.0238 12.5453 9.98446 12.5453 9.94282C12.5453 9.89361 12.569 9.85197 12.5942 9.81676L12.6351 9.78118L12.7351 9.65096V9.64112C12.7644 9.59986 12.784 9.55444 12.7956 9.50296C12.8054 9.45375 12.7956 9.40226 12.7742 9.35305L12.7644 9.33148C12.7449 9.28227 12.7351 9.24669 12.7291 9.20126L12.7156 9.05931L12.6998 8.90751C12.6998 8.8583 12.7193 8.80682 12.7505 8.75761C12.784 8.71635 12.8092 8.66487 12.831 8.61566V8.59598L12.8407 8.58613C12.8505 8.53503 12.8249 8.48355 12.7802 8.48355C12.7295 8.4597 12.6802 8.41844 12.6648 8.3575L12.649 8.32797C12.6254 8.23712 12.61 8.14665 12.61 8.0558L12.6197 7.80332V7.78742C12.6197 7.70262 12.5491 7.63562 12.469 7.63562H12.4592C12.3593 7.63562 12.2792 7.6061 12.2085 7.53493L12.1695 7.48383L12.0676 7.36951L11.9383 7.21772C11.8876 7.14655 11.8383 7.08561 11.7718 7.02466C11.7229 6.97545 11.6466 6.92397 11.5722 6.91413L11.4722 6.89823C11.4215 6.88839 11.3569 6.86454 11.302 6.82933C11.261 6.79792 11.202 6.80776 11.161 6.84902L11.0964 6.92018L11.0652 6.93987C11.0299 6.94971 10.9968 6.93003 10.981 6.88877C10.9615 6.82971 10.9615 6.75855 10.9908 6.6976V6.66808C10.9908 6.63249 10.9615 6.60713 10.9303 6.61697H10.8498C10.7596 6.61697 10.6698 6.60713 10.5856 6.56776L10.5349 6.54619C10.4841 6.52045 10.4251 6.50682 10.3702 6.50682C10.3195 6.50682 10.2684 6.51666 10.2195 6.54619L10.2 6.56209C10.1395 6.60145 10.0688 6.62303 9.99853 6.62719H9.8339C9.7576 6.62719 9.68319 6.65294 9.63244 6.6942C9.5678 6.73356 9.49751 6.75931 9.4231 6.77293L9.28816 6.79451C9.22765 6.80814 9.163 6.83388 9.10625 6.8793C9.05739 6.93041 8.98673 6.96031 8.92208 6.97999L8.89652 6.99173C8.81609 7.01558 8.74581 7.06668 8.69695 7.14163L8.63643 7.20257C8.6011 7.25368 8.6011 7.31311 8.63643 7.36421C8.66575 7.41531 8.72664 7.42932 8.78715 7.41531L8.86157 7.38389C8.90066 7.37027 8.94764 7.38389 8.98109 7.40358C9.01229 7.42932 9.05739 7.44484 9.10249 7.43916L9.22765 7.42553C9.29831 7.42553 9.3686 7.42553 9.437 7.44522C9.5133 7.47096 9.57795 7.49632 9.63846 7.54591C9.69897 7.59701 9.76362 7.61707 9.83804 7.62692C9.91433 7.63676 9.98875 7.65266 10.0594 7.67802L10.1083 7.68786C10.159 7.70376 10.2004 7.73707 10.2297 7.78855C10.2552 7.82981 10.2785 7.88924 10.2785 7.94035V7.95625C10.2785 8.0153 10.3293 8.05694 10.3804 8.05694H10.4097C10.4901 8.05694 10.5762 8.06678 10.6604 8.09252L10.6957 8.10615C10.7465 8.12772 10.7957 8.15725 10.8307 8.20873C10.8716 8.25794 10.8953 8.30942 10.9111 8.35863L10.9269 8.4298C10.9404 8.50664 10.9464 8.58159 10.9464 8.6626V8.68834C10.9464 8.73755 10.9818 8.78903 11.0366 8.80872C11.0874 8.81856 11.1464 8.84013 11.2031 8.86966L11.2268 8.8795C11.2933 8.91887 11.358 8.97035 11.4068 9.0313L11.4324 9.06688C11.4989 9.14183 11.5324 9.23836 11.5324 9.33299V9.36857C11.5324 9.44542 11.5189 9.52037 11.4933 9.59153C11.4737 9.65248 11.4933 9.72364 11.5579 9.74333L11.5933 9.76907C11.6696 9.7986 11.7342 9.85386 11.7831 9.91897C11.8338 9.99581 11.8537 10.0806 11.8537 10.1715V10.3232C11.844 10.3744 11.8301 10.4141 11.8049 10.4493C11.7797 10.4845 11.7793 10.536 11.8049 10.5716L11.8342 10.6208L11.8425 10.6151ZM8.63568 8.03044H8.62591C8.60449 8.03044 8.59471 8.05618 8.60035 8.08154L8.6199 8.18223C8.63944 8.26324 8.64921 8.34387 8.66087 8.42488C8.67064 8.50588 8.70973 8.57478 8.77061 8.62588H8.79016C8.86646 8.68683 8.91156 8.77768 8.91532 8.86853V9.12101C8.90555 9.17022 8.91532 9.2217 8.94651 9.26296L8.97019 9.28681C9.02093 9.34775 9.04085 9.41892 9.04649 9.48971L9.06002 9.76756C9.06002 9.83266 9.02093 9.88793 8.96004 9.89777L8.91118 9.90761C8.87585 9.90761 8.86044 9.94888 8.86044 9.98446C8.86044 10.0238 8.87623 10.0693 8.88976 10.1105V10.1204C8.90555 10.1696 8.91118 10.221 8.90555 10.2721L8.886 10.408C8.86646 10.5087 8.83526 10.5992 8.78602 10.6901L8.75069 10.751C8.72514 10.8002 8.69018 10.832 8.64884 10.8517C8.59998 10.8714 8.56465 10.9126 8.54886 10.9622L8.50977 11.1435C8.48421 11.2461 8.43911 11.3464 8.3786 11.4471H8.36883C8.30832 11.5281 8.2339 11.5989 8.14369 11.6481L8.08318 11.6894L7.93246 11.7643C7.8836 11.7859 7.85203 11.8314 7.84226 11.8866L7.81858 12.0524C7.80279 12.1531 7.76784 12.2398 7.69718 12.3049L7.63253 12.3817L7.55623 12.4567L7.48181 12.5377C7.4213 12.6089 7.3311 12.6384 7.23112 12.6244L7.05109 12.5888L6.88458 12.5672H6.83948C6.81994 12.5888 6.8158 12.6183 6.82971 12.6482C6.86504 12.7092 6.91991 12.7508 6.98043 12.7508L7.09018 12.7705C7.14092 12.7705 7.2018 12.7962 7.25066 12.8197C7.3014 12.8553 7.35064 12.8807 7.41115 12.8966H7.42093C7.48745 12.9223 7.55586 12.9261 7.62238 12.9223L7.6968 12.9106C7.78287 12.9007 7.86331 12.9106 7.93171 12.942L7.99222 12.9617C8.01778 12.9715 8.05687 12.9617 8.08243 12.9359C8.11362 12.9064 8.14294 12.8867 8.1824 12.8708L8.22337 12.861C8.28802 12.8413 8.35267 12.8296 8.42295 12.8296H8.46392C8.52255 12.8296 8.57931 12.8413 8.62854 12.8708L8.64809 12.8807C8.68342 12.8966 8.72438 12.8807 8.74994 12.8511C8.76347 12.8156 8.7988 12.78 8.83413 12.7504L8.95929 12.6638L9.03972 12.6127L9.08069 12.5888C9.12955 12.5532 9.20021 12.5377 9.26073 12.5377L9.44076 12.5218C9.51142 12.512 9.57193 12.4628 9.59148 12.3916C9.61102 12.3147 9.64034 12.2398 9.69145 12.1747C9.74219 12.1077 9.79143 12.0524 9.84217 12.0032C9.90682 11.9521 9.97146 11.9264 10.0417 11.9222H10.0827C10.1631 11.9063 10.2218 11.8314 10.2176 11.7507V11.4115C10.2274 11.3623 10.247 11.2953 10.2763 11.2457L10.3781 11.094L10.4172 11.0429C10.4484 11.0171 10.468 10.9838 10.5033 10.9422L10.5522 10.8771C10.5834 10.826 10.5834 10.7608 10.5424 10.7154C10.4935 10.6643 10.468 10.5931 10.4582 10.5243V10.5027C10.4484 10.4217 10.4484 10.3369 10.4717 10.2502V10.2263C10.4973 10.1593 10.5322 10.0942 10.5736 10.0333C10.6127 9.98408 10.607 9.91291 10.5578 9.87165L10.4717 9.7967C10.4011 9.73576 10.362 9.64491 10.3522 9.55406L10.3424 9.45337C10.3424 9.42195 10.3424 9.38826 10.3327 9.35268L10.3229 9.27583C10.3112 9.19104 10.2624 9.12404 10.1917 9.07483L10.1564 9.06499C10.1056 9.03357 10.0564 8.98814 10.0154 8.92909C9.97635 8.87799 9.95681 8.80682 9.94102 8.73604L9.92523 8.65124C9.92523 8.61982 9.90569 8.60014 9.87637 8.58613L9.63545 8.50929C9.58471 8.49945 9.53547 8.46008 9.50052 8.4245H9.49075C9.45955 8.38324 9.41032 8.38324 9.37912 8.41276L9.33026 8.46387C9.32049 8.47977 9.30884 8.48355 9.29493 8.47976C9.26373 8.47976 9.24419 8.45402 9.25396 8.42866C9.26373 8.34765 9.23442 8.26703 9.16977 8.21782L9.10324 8.16671L8.95441 8.06602C8.91344 8.05012 8.85255 8.06602 8.83301 8.11523L8.81346 8.14665C8.81346 8.15649 8.79768 8.16028 8.79392 8.16633C8.77249 8.16633 8.74318 8.16633 8.74318 8.14059L8.72739 8.11485C8.71386 8.08533 8.67853 8.06564 8.64696 8.0558L8.63568 8.03044ZM8.03469 8.53503L8.00914 8.50929C7.98358 8.48961 7.9584 8.49339 7.93284 8.51913C7.89751 8.58008 7.86819 8.64519 7.85241 8.71219V8.72203C7.83887 8.78714 7.77799 8.83256 7.71747 8.82272H7.65884C7.58818 8.82272 7.53368 8.88367 7.53368 8.95294C7.53368 9.04379 7.50249 9.13615 7.44761 9.20542L7.4183 9.23684C7.36756 9.30195 7.29314 9.34738 7.21684 9.37274L7.17775 9.38258C7.12701 9.39848 7.08754 9.43368 7.07777 9.49311C7.07777 9.54422 7.04658 9.5957 7.00711 9.63507L6.95637 9.67443C6.89586 9.74144 6.80566 9.77702 6.71545 9.78686L6.46476 9.8126C6.38432 9.8126 6.31592 9.86181 6.26518 9.93865C6.21444 10.0136 6.14002 10.0647 6.0656 10.0745L5.95397 10.0844C5.87354 10.0942 5.78935 10.0942 5.70328 10.0745L5.65442 10.0647L5.51723 10.0291C5.46837 10.0132 5.42703 10.0291 5.39771 10.0647L5.34697 10.1298C5.28232 10.2048 5.18836 10.2404 5.09628 10.2305L4.77116 10.1911C4.72042 10.1911 4.68096 10.1654 4.63623 10.14C4.58549 10.1105 4.55016 10.0749 4.51483 10.0393L4.38967 9.88755C4.37614 9.87771 4.35058 9.87165 4.32503 9.87771L4.25437 9.90724L3.97436 9.9784C3.92362 9.9943 3.85897 9.9784 3.80973 9.94888C3.75899 9.90761 3.6981 9.89777 3.63759 9.89777H3.57294C3.51243 9.91367 3.47297 9.97878 3.49251 10.0397L3.51206 10.1404C3.52784 10.1915 3.52371 10.2509 3.49853 10.3021C3.47334 10.3532 3.47898 10.4027 3.51206 10.4538L3.54325 10.4932C3.58234 10.5542 3.64323 10.6056 3.69397 10.6549C3.74283 10.706 3.79395 10.7555 3.83303 10.8225L3.90933 10.9584C3.94842 11.0296 4.00931 11.069 4.08937 11.069C4.16379 11.069 4.24008 11.0947 4.29872 11.1439L4.44943 11.2859C4.4904 11.3215 4.54941 11.3271 4.59038 11.2957L4.61594 11.2859C4.64525 11.2859 4.6648 11.3056 4.6648 11.337V11.3627C4.6648 11.4278 4.71554 11.4888 4.78018 11.5126L5.00532 11.5637C5.08575 11.5895 5.16581 11.6148 5.24211 11.6644H5.2812C5.32216 11.6644 5.35749 11.6288 5.35186 11.5834V11.4078C5.35186 11.3567 5.3714 11.3052 5.41237 11.2855L5.43793 11.2757C5.46161 11.2855 5.48679 11.3052 5.47702 11.3268V11.4115C5.47702 11.4767 5.49656 11.5376 5.54166 11.583C5.5924 11.6341 5.65705 11.644 5.71192 11.6243C5.77244 11.5985 5.83332 11.5929 5.89797 11.5985L6.08402 11.6084C6.17422 11.6182 6.25841 11.6084 6.33471 11.5728C6.42492 11.5433 6.49934 11.5016 6.56962 11.4468L6.59894 11.4271L6.74965 11.2912C6.80039 11.2401 6.86504 11.2143 6.92593 11.2143H7.12551C7.22548 11.2045 7.31719 11.1136 7.32696 11.0133L7.34651 10.9126C7.34651 10.8456 7.37582 10.7866 7.42093 10.7351C7.47167 10.684 7.5209 10.6541 7.57164 10.6344L7.63216 10.6087C7.71635 10.5731 7.78287 10.4981 7.81219 10.4077L7.84151 10.2854C7.86706 10.1847 7.9178 10.0844 7.99222 10.0193L8.002 10.0075C8.06251 9.95834 8.07266 9.85765 8.03319 9.78686L8.01741 9.75128C7.98208 9.70017 7.97644 9.62522 8.00162 9.56012C8.02718 9.48895 8.05236 9.42801 8.09182 9.36706L8.14256 9.2959C8.16211 9.25653 8.16211 9.1952 8.13279 9.16C8.1016 9.12063 8.08205 9.06915 8.08205 9.01994L8.07228 8.94878V8.7773C8.08205 8.72619 8.07228 8.66109 8.05649 8.6096L8.03695 8.55055L8.03469 8.53503ZM7.31832 8.15044V8.13681C7.31832 8.08571 7.28712 8.0558 7.24766 8.0558H7.11649C7.06762 8.06564 7.01651 8.06564 6.97554 8.0558H6.7504C6.63502 8.0558 6.52527 8.03422 6.41552 8.0047L6.29412 7.97517L6.19414 7.94375L5.96901 7.8688C5.84761 7.83322 5.7574 7.75259 5.7029 7.64206L5.67734 7.59096C5.64201 7.516 5.5676 7.47474 5.49318 7.49026C5.40711 7.49026 5.32292 7.49026 5.24248 7.4509L5.18197 7.42516C5.06658 7.37405 4.98239 7.27336 4.98239 7.13747L4.96097 7.00157C4.94744 6.9304 4.90234 6.86567 4.84145 6.83993C4.77079 6.80852 4.70652 6.76877 4.63999 6.72372L4.61631 6.70782C4.54001 6.64688 4.47537 6.56776 4.44004 6.47124L4.43026 6.44171C4.40471 6.3607 4.40095 6.27402 4.42049 6.18923L4.43026 6.15781C4.44981 6.0927 4.45582 6.02759 4.45582 5.9568C4.45582 5.89586 4.43026 5.83453 4.38516 5.78911L4.3145 5.724C4.23407 5.65889 4.18521 5.56236 4.17957 5.456C4.1698 5.34546 4.1698 5.23909 4.18934 5.13272V5.1032C4.18934 5.04225 4.1386 5.00251 4.08937 5.00251H4.07358C4.00893 5.00251 3.95406 5.04187 3.92286 5.1032C3.89918 5.17436 3.85822 5.22925 3.81311 5.28452L3.79357 5.31026L3.64285 5.46205C3.59211 5.51126 3.56242 5.58811 3.55265 5.66306C3.54288 5.7399 3.52333 5.81485 3.49214 5.88602L3.48236 5.91176C3.45681 5.97081 3.41772 6.02797 3.36698 6.06355C3.31812 6.10292 3.28279 6.16424 3.28279 6.22329L3.27301 6.4561C3.27301 6.55679 3.25723 6.65899 3.22227 6.75968L3.2125 6.79905C3.18694 6.86605 3.2125 6.93495 3.27301 6.96674L3.48236 7.05759L3.50191 7.06744C3.51769 7.06744 3.52333 7.07728 3.52747 7.09318C3.54325 7.11286 3.52747 7.14239 3.51168 7.14239L3.46282 7.16813C3.4335 7.17797 3.41208 7.20939 3.40231 7.24497L3.39253 7.29418V7.30402L3.34179 7.58793C3.33202 7.6273 3.33202 7.67272 3.33202 7.71814C3.33202 7.75941 3.35758 7.79499 3.39253 7.80899L3.50228 7.8601C3.55302 7.88962 3.61391 7.92521 3.653 7.96079L3.70374 8.00205C3.71727 8.02173 3.74283 8.04142 3.76237 8.05126L3.7838 8.07094C3.81913 8.10236 3.84243 8.14211 3.85446 8.18715L3.90332 8.4139C3.90332 8.47484 3.95406 8.52633 4.0033 8.53995L4.08373 8.56569C4.08373 8.56569 4.09951 8.56569 4.10929 8.57554L4.20926 8.60695C4.2897 8.6327 4.35998 8.67812 4.42087 8.73717C4.48138 8.78827 4.54039 8.85338 4.59113 8.92455L4.61067 8.94423C4.65164 8.99534 4.71065 9.02108 4.77116 9.00518C4.83168 8.98928 4.89632 8.98549 4.96097 8.98549H5.03727C5.08613 8.98549 5.15265 8.99912 5.20753 9.0347C5.25639 9.06612 5.32292 9.08581 5.38192 9.11155H5.39771C5.45822 9.13729 5.52287 9.12517 5.57399 9.09186C5.62285 9.0506 5.68937 9.03092 5.75402 9.03092L5.98893 9.04455C6.03967 9.04455 6.0889 9.0347 6.11409 8.99534H6.12386L6.20993 8.91433L6.23549 8.88859C6.27457 8.83938 6.33546 8.81742 6.3941 8.81364H6.62111C6.67974 8.81364 6.7365 8.76253 6.76018 8.71294C6.78574 8.66184 6.83647 8.6202 6.89511 8.61036L6.99696 8.59068C7.03605 8.59068 7.07138 8.55509 7.08717 8.50967C7.1007 8.46046 7.12626 8.41882 7.16159 8.38929L7.24202 8.30829C7.29276 8.25718 7.31832 8.2076 7.32809 8.14665L7.31832 8.15044Z" fill="white"/>
</svg>
