<svg width="16" height="16" viewBox="0 0 16 16" fill="none" xmlns="http://www.w3.org/2000/svg">
<path d="M7.99987 0C3.58171 0 0 3.58182 0 7.99997C0 12.418 3.58171 16.0001 7.99987 16.0001C12.418 16.0001 16 12.418 16 7.99997C16 3.58182 12.418 0 7.99987 0ZM7.4709 3.13991C7.79475 2.93797 8.2053 2.93797 8.52915 3.13991L12.7341 5.76202H3.26592L7.4709 3.13991ZM12.7931 10.4761C12.7931 10.9496 12.4089 11.3333 11.9355 11.3333H4.0646C3.5911 11.3333 3.20741 10.9495 3.20741 10.4761V5.94986C3.20741 5.89978 3.21253 5.85108 3.22085 5.80324L7.74402 8.62372C7.74957 8.62718 7.75549 8.62953 7.7612 8.63273C7.76717 8.63604 7.77325 8.63924 7.77933 8.64228C7.81128 8.65876 7.84418 8.67204 7.87784 8.68073C7.8813 8.68169 7.88477 8.68212 7.88824 8.68292C7.92514 8.69161 7.96253 8.69705 7.99987 8.69705H8.00067C8.038 8.69705 8.07539 8.69177 8.11229 8.68292C8.11576 8.68207 8.11923 8.68169 8.12269 8.68073C8.1563 8.67204 8.1891 8.65876 8.2212 8.64228C8.22728 8.63924 8.23336 8.63604 8.23934 8.63273C8.24499 8.62953 8.25096 8.62718 8.25651 8.62372L12.7797 5.80324C12.788 5.85108 12.7931 5.89967 12.7931 5.94986V10.4761Z" fill="#D17D8C"/>
</svg>
