<svg width="130" height="40" viewBox="0 0 130 40" fill="none" xmlns="http://www.w3.org/2000/svg">
<path d="M77.5814 26.9585H77.5415C77.5614 26.9585 77.5615 26.9785 77.5814 26.9785H77.6013L77.5814 26.9585ZM77.5814 26.9785C77.4219 26.9785 77.0032 27.0582 76.5645 27.0582C75.1888 27.0582 74.7102 26.4202 74.7102 25.5828V20.0398H77.5216C77.6811 20.0398 77.8007 19.9002 77.8007 19.7009V16.6901C77.8007 16.5306 77.6611 16.391 77.5216 16.391H74.7102V12.6426C74.7102 12.503 74.6105 12.4233 74.451 12.4233H70.6228C70.4633 12.4233 70.3835 12.5229 70.3835 12.6426V16.4907C70.3835 16.4907 68.4495 16.9693 68.3299 16.9892C68.1903 17.0291 68.1105 17.1487 68.1105 17.2883V19.7009C68.1105 19.9002 68.2501 20.0398 68.4096 20.0398H70.3636V25.8619C70.3636 30.1886 73.3743 30.6272 75.428 30.6272C76.3651 30.6272 77.5016 30.3282 77.6811 30.2285C77.7808 30.1886 77.8406 30.069 77.8406 29.9493V27.2975C77.8406 27.138 77.7409 27.0183 77.5814 26.9785ZM119.572 23.0904C119.572 19.8803 118.276 19.4616 116.92 19.6012C115.864 19.661 115.006 20.1993 115.006 20.1993V26.4401C115.006 26.4401 115.864 27.0383 117.16 27.0782C118.974 27.118 119.572 26.4601 119.572 23.0904ZM123.879 22.8113C123.879 28.8926 121.905 30.6272 118.476 30.6272C115.565 30.6272 114.009 29.1518 114.009 29.1518C114.009 29.1518 113.949 29.9693 113.85 30.069C113.79 30.1686 113.71 30.2085 113.591 30.2085H110.979C110.799 30.2085 110.64 30.069 110.64 29.9094L110.68 10.23C110.68 10.0705 110.819 9.93092 110.979 9.93092H114.747C114.907 9.93092 115.046 10.0705 115.046 10.23V16.9094C115.046 16.9094 116.502 15.9723 118.635 15.9723L118.615 15.9325C120.729 15.9325 123.879 16.73 123.879 22.8113ZM108.426 16.411H104.698C104.499 16.411 104.399 16.5506 104.399 16.7499V26.3803C104.399 26.3803 103.422 27.0582 102.086 27.0582C100.77 27.0582 100.371 26.4601 100.371 25.1242V16.7101C100.371 16.5506 100.232 16.411 100.072 16.411H96.2838C96.1243 16.411 95.9848 16.5506 95.9848 16.7101V25.7821C95.9848 29.6702 98.1581 30.6472 101.149 30.6472C103.621 30.6472 105.615 29.2913 105.615 29.2913C105.615 29.2913 105.715 29.9892 105.755 30.0889C105.795 30.1687 105.914 30.2484 106.034 30.2484H108.407C108.606 30.2484 108.706 30.1088 108.706 29.9493L108.746 16.7101C108.765 16.5506 108.606 16.411 108.426 16.411ZM66.4357 16.391H62.6673C62.5078 16.391 62.3682 16.5506 62.3682 16.7499V29.7499C62.3682 30.1088 62.6075 30.2285 62.9065 30.2285H66.3161C66.6749 30.2285 66.7547 30.069 66.7547 29.7499V16.6901C66.7348 16.5306 66.5952 16.391 66.4357 16.391ZM64.5614 10.3895C63.2056 10.3895 62.109 11.4662 62.109 12.842C62.109 14.1978 63.1857 15.2944 64.5614 15.2944C65.8973 15.2944 66.974 14.2177 66.974 12.842C66.974 11.4861 65.8973 10.3895 64.5614 10.3895ZM93.7915 9.95086H90.043C89.8835 9.95086 89.744 10.0904 89.744 10.2499V17.4877H83.882V10.2499C83.882 10.0904 83.7424 9.95086 83.5829 9.95086H79.8145C79.655 9.95086 79.5154 10.0904 79.5154 10.2499V29.9294C79.5154 30.0889 79.6749 30.2285 79.8145 30.2285H83.5829C83.7424 30.2285 83.882 30.0889 83.882 29.9294V21.5153H89.744L89.7041 29.9294C89.7041 30.0889 89.8437 30.2285 90.0032 30.2285H93.7716C93.9311 30.2285 94.0706 30.0889 94.0706 29.9294V10.2499C94.0906 10.0904 93.951 9.95086 93.7915 9.95086ZM60.3544 18.664V28.8328C60.3544 28.8926 60.3345 29.0321 60.2547 29.0521C60.2547 29.0521 58.0415 30.6272 54.3927 30.6272C49.9863 30.6272 44.7424 29.2515 44.7424 20.1395C44.7424 11.0275 49.3084 9.15331 53.7746 9.17325C57.6427 9.17325 59.198 10.0505 59.4372 10.2101C59.497 10.3098 59.5369 10.3696 59.5369 10.4493L58.8191 13.6196C58.8191 13.7791 58.6596 13.9785 58.4602 13.9186C57.8222 13.7193 56.8651 13.3404 54.6121 13.3404C52.0001 13.3404 49.2087 14.0782 49.2087 19.9601C49.2087 25.822 51.8605 26.5199 53.7746 26.5199C55.4096 26.5199 55.9878 26.3205 55.9878 26.3205V22.253H53.3759C53.1765 22.253 53.0369 22.1134 53.0369 21.9539V18.684C53.0369 18.5245 53.1765 18.3849 53.3759 18.3849H60.0154C60.2148 18.365 60.3544 18.5045 60.3544 18.664Z" fill="#203864"/>
<path fill-rule="evenodd" clip-rule="evenodd" d="M19.4203 4.12878C11.0261 4.12878 4.22705 10.9279 4.22705 19.322C4.22705 26.0414 8.57368 31.7239 14.6151 33.7377C15.3728 33.8573 15.6718 33.4187 15.6718 33.0199C15.6718 32.661 15.6519 31.4647 15.6519 30.1886C11.8436 30.8865 10.8467 29.2515 10.5476 28.4141C10.3682 27.9754 9.63042 26.6196 8.99239 26.2607C8.45404 25.9815 7.69638 25.2638 8.97245 25.2438C10.1688 25.2239 11.0261 26.3404 11.3053 26.799C12.681 29.092 14.8544 28.4539 15.7317 28.0552C15.8712 27.0782 16.27 26.4003 16.7086 26.0214C13.339 25.6426 9.78993 24.3266 9.78993 18.5245C9.78993 16.8696 10.3881 15.4938 11.3451 14.4371C11.1856 14.0582 10.6672 12.503 11.5047 10.4095C11.5047 10.4095 12.7807 10.0107 15.6918 11.9647C16.908 11.6257 18.204 11.4463 19.4801 11.4463C20.7761 11.4463 22.0522 11.6257 23.2685 11.9647C26.1795 9.99075 27.4356 10.4095 27.4356 10.4095C28.2731 12.503 27.7347 14.0582 27.5951 14.4371C28.5721 15.4938 29.1504 16.8496 29.1504 18.5245C29.1504 24.3466 25.6013 25.6426 22.2117 26.0214C22.77 26.5 23.2485 27.3972 23.2485 28.8328C23.2485 30.8665 23.2286 32.5015 23.2286 33C23.2286 33.3987 23.5077 33.8772 24.2654 33.7177C30.4464 31.6242 34.6136 25.822 34.6136 19.3021C34.6136 10.9279 27.8145 4.12878 19.4203 4.12878Z" fill="#D17D8C"/>
</svg>
