<svg width="16" height="16" viewBox="0 0 16 16" fill="none" xmlns="http://www.w3.org/2000/svg">
<path fill-rule="evenodd" clip-rule="evenodd" d="M8 16C12.4183 16 16 12.4183 16 8C16 3.58172 12.4183 0 8 0C3.58172 0 0 3.58172 0 8C0 12.4183 3.58172 16 8 16ZM7.3475 3.27623C7.70784 2.9078 8.29241 2.90805 8.65262 3.27623L12.7295 7.44302C13.0901 7.81132 13.0901 8.40868 12.7297 8.77711C12.4797 9.03258 12.2422 9.04297 11.8063 9.04297V11.0566C11.8063 11.5777 11.3932 12 10.8833 12H5.11743C4.60756 12 4.19443 11.5777 4.19443 11.0566V9.05333H3.92307C3.68678 9.05333 3.45062 8.96126 3.27033 8.77698C2.90987 8.40868 2.90987 7.81132 3.27045 7.44289L7.3475 3.27623Z" fill="#D17D8C"/>
</svg>
