<svg width="16" height="16" viewBox="0 0 16 16" fill="none" xmlns="http://www.w3.org/2000/svg">
<path fill-rule="evenodd" clip-rule="evenodd" d="M2.27364 2.27362C5.41239 -0.757875 10.3885 -0.757875 13.5273 2.27362C16.7449 5.38124 16.834 10.5088 13.7264 13.7263C10.5876 16.7578 5.61147 16.7578 2.47271 13.7263C-0.744854 10.6187 -0.833981 5.49119 2.27364 2.27362ZM12.5497 10.3057L11.0324 8.79375C10.688 8.44857 10.129 8.4479 9.78385 8.79226L9.78236 8.79375L8.91303 9.66308C8.84725 9.72902 8.7436 9.73813 8.66735 9.68469C8.19154 9.35217 7.74613 8.97811 7.33634 8.56696C6.96933 8.20077 6.63171 7.8063 6.32659 7.38712C6.27129 7.31182 6.27932 7.20741 6.34548 7.14145L7.23643 6.2505C7.5804 5.90586 7.5804 5.34781 7.23643 5.00317L5.71913 3.48587C5.36949 3.15161 4.81875 3.15161 4.46911 3.48587L3.98855 3.96643C3.26279 4.68403 3.0037 5.74956 3.31898 6.72027C3.55424 7.43046 3.8868 8.10462 4.30712 8.72354C4.68552 9.29095 5.11964 9.81913 5.60304 10.3003C6.12859 10.8296 6.71075 11.2994 7.33903 11.7015C8.0297 12.1522 8.78805 12.4894 9.58529 12.7004C9.79024 12.7509 10.0006 12.7763 10.2116 12.776C10.9352 12.7716 11.6275 12.4803 12.1366 11.966L12.5497 11.553C12.8937 11.2084 12.8937 10.6503 12.5497 10.3057Z" fill="#D17D8C"/>
</svg>
