<svg width="108" height="40" viewBox="0 0 108 40" fill="none" xmlns="http://www.w3.org/2000/svg">
<g clip-path="url(#clip0_347_893)">
<path d="M54.7583 13.2489L59.8965 12.9176C60.0138 13.7554 60.2287 14.3789 60.5803 14.827C61.1469 15.5285 61.9284 15.8792 62.9638 15.8792C63.7258 15.8792 64.3314 15.7038 64.7417 15.3336C65.1324 15.0414 65.3669 14.5738 65.3669 14.0867C65.3669 13.6191 65.152 13.1709 64.7808 12.8787C64.39 12.528 63.4718 12.1773 62.0261 11.8655C59.6621 11.3395 57.9624 10.6381 56.966 9.74181C55.9696 8.90401 55.403 7.67654 55.4421 6.37113C55.4421 5.47488 55.7156 4.57863 56.2236 3.83825C56.8097 3.00045 57.6107 2.33801 58.568 1.96782C59.6035 1.51969 61.0492 1.28589 62.8661 1.28589C65.0934 1.28589 66.7931 1.69505 67.9653 2.53284C69.1375 3.35116 69.8408 4.67605 70.0557 6.48803L64.9761 6.78029C64.8394 6.00094 64.5658 5.43591 64.1165 5.06572C63.6672 4.69553 63.0811 4.52018 62.3191 4.52018C61.6939 4.52018 61.225 4.65657 60.9124 4.90985C60.6194 5.14366 60.424 5.49436 60.4436 5.88404C60.4436 6.17629 60.5999 6.44906 60.8343 6.62442C61.0883 6.85822 61.6939 7.07254 62.6512 7.26738C65.0152 7.77395 66.6954 8.28053 67.7308 8.80659C68.7663 9.33265 69.5087 9.97561 69.958 10.7355C70.4269 11.5148 70.6614 12.4111 70.6418 13.3268C70.6418 14.4179 70.3292 15.509 69.7041 16.4247C69.0593 17.3794 68.1606 18.1198 67.1057 18.5679C65.9921 19.055 64.5854 19.3083 62.9052 19.3083C59.9356 19.3083 57.8842 18.7433 56.7316 17.5937C55.5789 16.4442 54.8951 15.0024 54.7583 13.2489ZM1.23083 19.016V1.59763H10.2373C11.898 1.59763 13.1874 1.73401 14.0666 2.02627C14.9262 2.29904 15.6881 2.86407 16.1961 3.62393C16.7627 4.46173 17.0362 5.43591 17.0166 6.44906C17.0753 8.16363 16.1961 9.80026 14.6918 10.6575C14.1056 10.9888 13.4609 11.2226 12.7967 11.3395C13.2851 11.4759 13.7735 11.7097 14.2033 11.9824C14.5355 12.2552 14.809 12.5669 15.063 12.8982C15.356 13.2294 15.61 13.5996 15.8249 13.9893L18.4428 19.0355H12.3083L9.41679 13.6775C9.04559 12.9956 8.733 12.5475 8.43994 12.3331C8.0492 12.0604 7.58032 11.924 7.11143 11.924H6.64255V18.9966H1.23083V19.016ZM6.64255 8.65072H8.92837C9.41679 8.61175 9.88567 8.53382 10.3546 8.41692C10.7062 8.35847 11.0188 8.16363 11.2337 7.87137C11.7612 7.16996 11.6831 6.17629 11.0384 5.5723C10.6867 5.28004 10.0029 5.12417 9.02605 5.12417H6.64255V8.65072ZM0 33.9405L5.13821 33.6093C5.25543 34.4471 5.47033 35.0706 5.822 35.5187C6.36903 36.2201 7.17004 36.5903 8.2055 36.5903C8.96744 36.5903 9.57308 36.415 9.98336 36.0448C10.3741 35.733 10.6085 35.2849 10.6085 34.7978C10.6085 34.3302 10.3936 33.8821 10.0224 33.5898C9.63169 33.2391 8.71346 32.8884 7.24819 32.5767C4.88423 32.0506 3.18452 31.3492 2.18813 30.453C1.19175 29.6152 0.625181 28.3877 0.664255 27.0823C0.664255 26.186 0.937772 25.2898 1.44573 24.5494C2.03184 23.7116 2.83285 23.0492 3.79016 22.679C4.82562 22.2308 6.27135 21.997 8.08828 21.997C10.3155 21.997 12.0152 22.4062 13.1874 23.244C14.3596 24.0818 15.0434 25.3872 15.2583 27.1992L10.1787 27.4914C10.042 26.7121 9.76845 26.1471 9.3191 25.7769C8.88929 25.4067 8.28365 25.2313 7.52171 25.2508C6.89653 25.2508 6.42764 25.3872 6.11505 25.66C5.80246 25.8938 5.62663 26.2445 5.64617 26.6342C5.64617 26.9264 5.80246 27.1992 6.0369 27.3745C6.29088 27.6083 6.89653 27.8227 7.85384 28.0175C10.2178 28.5241 11.898 29.0306 12.9334 29.5567C13.9689 30.0828 14.7113 30.7257 15.1606 31.4856C15.6295 32.2649 15.864 33.1612 15.864 34.0574C15.864 35.1485 15.5318 36.2201 14.9262 37.1359C14.2815 38.0906 13.3828 38.8309 12.3278 39.2791C11.2142 39.7662 9.80753 40.0194 8.12735 40.0194C5.15774 40.0194 3.10637 39.4544 1.95369 38.3049C0.801013 37.1359 0.156295 35.6941 0 33.9405Z" fill="#203864"/>
<path d="M25.984 32.5767L30.712 33.999C30.458 35.1875 29.9305 36.3176 29.2076 37.3112C28.5434 38.188 27.6642 38.8699 26.6678 39.3181C25.6519 39.7662 24.3625 40 22.7995 40C20.9044 40 19.3415 39.7272 18.1497 39.1817C16.9384 38.6361 15.903 37.662 15.0238 36.2786C14.1447 34.8953 13.7148 33.1223 13.7148 30.9596C13.7148 28.076 14.4768 25.8548 16.0202 24.3156C17.5636 22.7764 19.7322 21.9971 22.5455 21.9971C24.7532 21.9971 26.4724 22.4452 27.7423 23.322C28.9927 24.2182 29.9305 25.5821 30.5557 27.4135L25.7887 28.4657C25.6714 28.0565 25.4956 27.6473 25.2612 27.2966C24.9681 26.8875 24.5969 26.5757 24.1476 26.3419C23.6982 26.1081 23.1902 26.0107 22.6823 26.0107C21.4515 26.0107 20.5137 26.4978 19.869 27.4915C19.3805 28.2124 19.1266 29.3619 19.1266 30.9206C19.1266 32.8495 19.4196 34.1744 20.0057 34.8953C20.5918 35.6162 21.4124 35.9669 22.4869 35.9669C23.5224 35.9669 24.3038 35.6746 24.8313 35.1096C25.3588 34.5056 25.7496 33.6678 25.984 32.5767ZM37.0224 22.2893H42.4146V28.3877H48.3147V22.2893H53.746V39.7077H48.3147V32.6546H42.4146V39.7077H37.0224V22.2893Z" fill="#203864"/>
<path d="M53.0037 30.9985C53.0037 28.1539 53.8047 25.9327 55.3872 24.3545C56.9697 22.7764 59.1969 21.9775 62.0297 21.9775C64.9407 21.9775 67.1679 22.7569 68.7504 24.3156C70.3329 25.8743 71.1144 28.0564 71.1144 30.8621C71.1144 32.9079 70.7627 34.564 70.0789 35.8694C69.4147 37.1553 68.3792 38.2074 67.1093 38.9089C65.8003 39.6298 64.1788 39.9999 62.2446 39.9999C60.2714 39.9999 58.6498 39.6882 57.3604 39.0647C56.0319 38.4023 54.9378 37.3696 54.215 36.1032C53.4139 34.7394 53.0037 33.0443 53.0037 30.9985ZM58.3958 31.018C58.3958 32.7715 58.728 34.0379 59.3727 34.8173C60.0174 35.5771 60.9161 35.9668 62.0493 35.9668C63.2019 35.9668 64.1006 35.5966 64.7453 34.8368C65.3901 34.0769 65.7026 32.7325 65.7026 30.7842C65.7026 29.1475 65.3705 27.9395 64.7063 27.1992C64.042 26.4393 63.1433 26.0691 62.0102 26.0691C61.0138 26.0301 60.0565 26.4588 59.3922 27.2186C58.728 27.9785 58.3958 29.245 58.3958 31.018ZM76.6433 30.9985C76.6433 28.1539 77.4443 25.9327 79.0268 24.3545C80.6093 22.7764 82.8365 21.9775 85.6694 21.9775C88.5804 21.9775 90.8271 22.7569 92.3901 24.3156C93.953 25.8743 94.754 28.0564 94.754 30.8621C94.754 32.9079 94.4024 34.564 93.7186 35.8694C93.0543 37.1553 92.0189 38.2074 90.749 38.9089C89.44 39.6298 87.8184 39.9999 85.8843 39.9999C83.911 39.9999 82.2895 39.6882 81 39.0647C79.6715 38.4023 78.5775 37.3696 77.8546 36.1032C77.0536 34.7394 76.6433 33.0443 76.6433 30.9985ZM82.0355 31.018C82.0355 32.7715 82.3676 34.0379 83.0123 34.8173C83.6571 35.5771 84.5558 35.9668 85.6889 35.9668C86.8416 35.9668 87.7403 35.5966 88.385 34.8368C89.0297 34.0769 89.3423 32.7325 89.3423 30.7842C89.3423 29.1475 89.0102 27.9395 88.3459 27.1992C87.6817 26.4393 86.783 26.0691 85.6498 26.0691C84.6534 26.0301 83.6766 26.4588 83.0319 27.2186C82.3676 27.9785 82.0355 29.245 82.0355 31.018Z" fill="#203864"/>
<path d="M94.1875 22.2893H99.5797V35.4213H108V39.7077H94.168V22.2893H94.1875Z" fill="#203864"/>
<path d="M88.244 21.2841C93.6728 17.2042 95.3468 10.2881 91.9831 5.83662C88.6193 1.38512 81.4916 1.08386 76.0628 5.16374C70.634 9.24363 68.96 16.1597 72.3237 20.6112C75.6875 25.0627 82.8152 25.3639 88.244 21.2841Z" stroke="#203864" stroke-miterlimit="10"/>
<path d="M88.244 21.2841C93.6728 17.2042 95.3468 10.2881 91.9831 5.83662C88.6193 1.38512 81.4916 1.08386 76.0628 5.16374C70.634 9.24363 68.96 16.1597 72.3237 20.6112C75.6875 25.0627 82.8152 25.3639 88.244 21.2841Z" stroke="#D17D8C" stroke-miterlimit="10"/>
<path d="M77.1607 18.295L78.0945 17.4287C78.1735 17.509 78.2569 17.5842 78.3436 17.6534L78.3542 17.6619L78.3653 17.6698C78.5746 17.8189 78.8304 17.9185 79.1243 17.9185C79.3806 17.9185 79.6131 17.819 79.7808 17.6934C80.106 17.4848 80.3425 17.0887 80.3064 16.6559L80.3044 16.633L80.3004 16.6104C80.2309 16.2174 80.0681 15.8066 79.7936 15.4757L77.3628 12.0645L78.4944 11.2746L80.6107 14.2774L80.6151 14.2837L80.6198 14.2898C80.9952 14.7891 81.2826 15.3237 81.5001 15.9149C81.5991 16.2831 81.5693 16.6854 81.419 17.0471C81.2041 17.54 80.8596 17.9484 80.3979 18.2445L80.39 18.2495L80.3823 18.2548C79.7663 18.683 79.2902 18.8908 78.9251 18.9515L78.9251 18.9515L78.9216 18.9521C78.5884 19.0099 78.2242 18.9554 77.8738 18.7983C77.6083 18.6649 77.368 18.4969 77.1607 18.295ZM84.5751 7.41675C84.8987 7.41675 85.2283 7.5224 85.5668 7.77992L84.594 8.54531C84.0614 8.19883 83.3385 8.18873 82.8022 8.60734L82.7783 8.62603L82.7568 8.64747L82.7371 8.66705C82.4663 8.84662 82.2786 9.10187 82.172 9.39313C82.0435 9.73768 82.1409 10.0856 82.3126 10.3253L82.3205 10.3364L82.3291 10.347C82.4653 10.5168 82.7024 10.698 83.0208 10.709C83.1895 10.7236 83.3622 10.6888 83.5106 10.6465C83.6773 10.599 83.8654 10.5264 84.0706 10.4345C85.0329 10.0317 85.7287 9.81745 86.1748 9.74901L86.1748 9.74919L86.1882 9.74677C86.5299 9.68481 86.879 9.71722 87.1919 9.85094L87.1919 9.85095L87.1948 9.85218C87.4674 9.96666 87.7037 10.1705 87.8677 10.4232L87.8726 10.4308L87.8779 10.4383C88.0948 10.7473 88.221 11.1215 88.2368 11.5149C88.2522 11.9146 88.1456 12.2999 87.927 12.6444C87.6125 13.1135 87.2115 13.513 86.7404 13.8262L86.7403 13.8262L86.7335 13.8309C85.6845 14.5537 84.9455 14.7683 84.4422 14.6846L84.4422 14.6846L84.436 14.6836C83.9838 14.6142 83.5909 14.4301 83.2663 14.1572L84.2726 13.3632C84.4512 13.4994 84.6489 13.607 84.8567 13.681L84.8688 13.6853L84.8811 13.689C85.4247 13.8516 85.9945 13.7426 86.4477 13.4031C86.7387 13.2065 87.0225 12.9109 87.1433 12.5005C87.341 11.8895 87.0029 11.2235 86.3935 11.0209C86.3906 11.02 86.3872 11.0188 86.3834 11.0175C86.3353 11.0012 86.2175 10.9613 86.0838 10.9568C85.8901 10.9437 85.6728 10.9779 85.449 11.0356C85.2117 11.0969 84.9347 11.1934 84.6181 11.3258C83.6543 11.7214 82.9631 11.8431 82.4961 11.7968C82.064 11.752 81.6811 11.5314 81.4597 11.1864L81.4536 11.1768L81.447 11.1676C81.2769 10.9272 81.185 10.6367 81.1678 10.3333C81.1699 9.97513 81.2647 9.63538 81.4495 9.36486C81.787 8.88715 82.1902 8.48715 82.6764 8.17547L82.6833 8.17103L82.6901 8.16636C83.4686 7.63026 84.0919 7.41675 84.5751 7.41675Z" fill="#D17D8C" stroke="#D17D8C"/>
</g>
<defs>
<clipPath id="clip0_347_893">
<rect width="108" height="40" fill="white"/>
</clipPath>
</defs>
</svg>
