<svg width="16" height="16" viewBox="0 0 16 16" fill="none" xmlns="http://www.w3.org/2000/svg">
<path fill-rule="evenodd" clip-rule="evenodd" d="M8 16C12.4183 16 16 12.4183 16 8C16 3.58172 12.4183 0 8 0C3.58172 0 0 3.58172 0 8C0 12.4183 3.58172 16 8 16ZM11.5024 11.99C11.8332 10.2192 12.4849 6.38167 12.6349 4.80083C12.6732 4.40083 12.5599 4.01167 12.0882 4.01833C11.7116 4.025 11.1349 4.22583 8.35741 5.38083C7.38491 5.78583 5.44075 6.62333 2.52575 7.89333C2.05241 8.08167 1.80491 8.26583 1.78241 8.44583C1.74423 8.74983 2.1266 8.87007 2.64618 9.03346C2.71627 9.05551 2.78886 9.07833 2.86325 9.1025C3.37408 9.26917 4.06075 9.46334 4.41741 9.47083C4.74158 9.4775 5.10325 9.34417 5.50241 9.07C8.22658 7.23167 9.63241 6.3025 9.72075 6.2825C9.78241 6.26833 9.86825 6.25083 9.92741 6.3025C9.98658 6.35417 9.97991 6.4525 9.97408 6.47917C9.93602 6.63966 8.44449 8.02666 7.66931 8.74752C7.42614 8.97365 7.25347 9.13422 7.21825 9.17083C7.13989 9.25221 7.06003 9.32919 6.98327 9.40317C6.50902 9.86029 6.15331 10.2032 7.00325 10.7633C7.40807 11.0303 7.73277 11.2514 8.05606 11.4716C8.4149 11.716 8.77198 11.9591 9.23491 12.2625C9.35237 12.3394 9.46453 12.4193 9.57376 12.4972C9.98762 12.7921 10.3595 13.0572 10.8191 13.015C11.0857 12.9908 11.3624 12.74 11.5024 11.99Z" fill="#D17D8C"/>
</svg>
